<svg width="140" height="132" viewBox="0 0 140 132" fill="none" xmlns="http://www.w3.org/2000/svg">
<path d="M66.6429 117.546C94.1514 117.546 116.453 95.2448 116.453 67.6381C116.453 40.0315 94.0531 17.73 66.6429 17.73C39.1345 17.73 16.833 40.0315 16.833 67.6381C16.833 95.2448 39.1345 117.546 66.6429 117.546Z" fill="#2A2E37"/>
<path d="M23.5001 106.886C15.7474 117.304 35.6138 145.65 69.2897 119.485C102.966 93.3191 79.7074 57.2204 59.5987 53.5864C39.4901 49.9523 17.201 14.8227 45.3047 7.31228C73.4083 -0.198169 116.775 9.73501 92.3055 49.71C67.836 89.685 47.2428 97.9222 72.4392 105.19C92.5963 111.005 106.842 105.675 111.445 102.283" stroke="#4F576B" stroke-width="2" stroke-miterlimit="10" stroke-dasharray="4 4"/>
<g filter="url(#filter0_d)">
<path d="M30.016 93.8702C27.281 72.6482 30.7668 66.236 34.3292 61.2782C36.3012 63.5395 37.7021 65.4367 37.7021 65.4367C37.3648 65.0209 39.3156 61.6461 39.4977 61.3606C41.3968 57.752 43.1138 54.429 45.2984 51.0024C56.7408 34.0001 75.8143 22.6663 95.2731 16.3975C98.9621 15.3358 102.651 14.274 106.21 13.7316C108.08 13.3177 110.002 13.1375 111.873 12.7235C112.34 12.62 117.172 12.2865 117.068 11.8189C110.664 29.4229 107.201 39.2635 109.66 49.2651C104.024 49.2863 101.297 49.1541 95.3254 46.5517C101.784 56.8943 105.16 56.6375 105.16 56.6375C105.16 56.6375 98.0049 71.9552 64.8269 84.9392C67.8357 89.6688 69.1599 90.1115 69.1599 90.1115C69.1599 90.1115 47.6967 101.729 33.2356 95.1196C30.016 93.8702 30.016 93.8702 30.016 93.8702Z" fill="#5C6479"/>
</g>
<path d="M17.8007 117.26C29.6895 94.5179 44.1576 62.3762 72.8761 40.3239C101.777 17.9861 121.341 9.97718 121.341 9.97718L118.767 12.7541C118.767 12.7541 90.1348 25.2225 65.412 52.0312C40.8713 78.5543 31.1902 101.298 24.4256 115.058C17.8007 117.26 17.8007 117.26 17.8007 117.26Z" fill="url(#paint0_linear)"/>
<path d="M14.2638 45.4242L16.9188 44.6239C17.1111 44.5681 17.1111 44.289 16.9188 44.2331L14.2638 43.4329C14.1955 43.4143 14.1459 43.3647 14.1273 43.2964L13.3271 40.6476C13.2712 40.4553 12.9921 40.4553 12.9363 40.6476L12.136 43.2964C12.1174 43.3647 12.0678 43.4143 11.9996 43.4329L9.35077 44.2331C9.15847 44.289 9.15847 44.5681 9.35077 44.6239L12.0058 45.4242C12.074 45.4428 12.1236 45.4924 12.1422 45.5606L12.9425 48.2156C12.9983 48.4079 13.2774 48.4079 13.3333 48.2156L14.1335 45.5606C14.1459 45.4924 14.1955 45.4428 14.2638 45.4242Z" fill="#2A2E37"/>
<path d="M63.5059 15.2606L66.2211 15.8237C66.4168 15.8663 66.5499 15.621 66.4075 15.4802L64.4557 13.5104C64.4046 13.4615 64.3847 13.3942 64.4009 13.3254L64.961 10.6156C65.0036 10.42 64.7583 10.2868 64.6175 10.4292L62.6507 12.3756C62.6018 12.4267 62.5345 12.4466 62.4657 12.4304L59.7559 11.8703C59.5603 11.8277 59.4271 12.073 59.5695 12.2138L61.5213 14.1835C61.5724 14.2324 61.5924 14.2997 61.5762 14.3686L61.0131 17.0838C60.9704 17.2794 61.2158 17.4126 61.3566 17.2702L63.3263 15.3184C63.3698 15.2643 63.4371 15.2444 63.5059 15.2606Z" fill="#2A2E37"/>
<path d="M118.1 99.4444L120.175 97.6043C120.326 97.4729 120.209 97.2195 120.011 97.2495L117.265 97.6369C117.195 97.6486 117.129 97.6244 117.084 97.5702L115.246 95.5016C115.115 95.3504 114.862 95.4675 114.892 95.6655L115.276 98.4055C115.288 98.4753 115.264 98.5411 115.21 98.5867L113.141 100.424C112.99 100.556 113.107 100.809 113.305 100.779L116.05 100.392C116.12 100.38 116.186 100.404 116.232 100.458L118.072 102.533C118.203 102.684 118.456 102.567 118.426 102.369L118.039 99.6229C118.022 99.5557 118.046 99.4899 118.1 99.4444Z" fill="#2A2E37"/>
<path d="M99.3958 86.4797L101.719 85.7796C101.887 85.7307 101.887 85.4865 101.719 85.4376L99.3958 84.7375C99.3361 84.7212 99.2926 84.6778 99.2764 84.6181L98.5762 82.3005C98.5273 82.1323 98.2831 82.1323 98.2342 82.3005L97.534 84.6181C97.5177 84.6778 97.4743 84.7212 97.4146 84.7375L95.0969 85.4376C94.9286 85.4865 94.9286 85.7307 95.0969 85.7796L97.42 86.4797C97.4797 86.496 97.5232 86.5394 97.5394 86.5991L98.2396 88.9221C98.2885 89.0904 98.5327 89.0904 98.5816 88.9221L99.2818 86.5991C99.2926 86.5394 99.3361 86.496 99.3958 86.4797Z" fill="#959EB0"/>
<path d="M60.6326 111.323L62.9557 110.522C63.124 110.467 63.124 110.187 62.9557 110.132L60.6326 109.331C60.5729 109.313 60.5295 109.263 60.5132 109.195L59.813 106.546C59.7641 106.354 59.5199 106.354 59.471 106.546L58.7708 109.195C58.7545 109.263 58.7111 109.313 58.6514 109.331L56.3337 110.132C56.1655 110.187 56.1655 110.467 56.3337 110.522L58.6568 111.323C58.7166 111.341 58.76 111.391 58.7763 111.459L59.4765 114.114C59.5253 114.306 59.7696 114.306 59.8184 114.114L60.5186 111.459C60.5295 111.391 60.5729 111.341 60.6326 111.323Z" fill="#959EB0"/>
<path d="M27.7213 56.0503L29.3807 55.5502C29.5009 55.5153 29.5009 55.3409 29.3807 55.306L27.7213 54.8059C27.6787 54.7943 27.6476 54.7632 27.636 54.7206L27.1359 53.0652C27.101 52.9451 26.9265 52.9451 26.8916 53.0652L26.3915 54.7206C26.3799 54.7632 26.3488 54.7943 26.3062 54.8059L24.6507 55.306C24.5305 55.3409 24.5305 55.5153 24.6507 55.5502L26.3101 56.0503C26.3527 56.062 26.3837 56.093 26.3954 56.1356L26.8955 57.7949C26.9304 57.915 27.1049 57.915 27.1398 57.7949L27.6399 56.1356C27.6476 56.093 27.6787 56.062 27.7213 56.0503Z" fill="#959EB0"/>
<path d="M120.421 61.0225L122.08 60.5224C122.201 60.4875 122.201 60.313 122.08 60.2782L120.421 59.7781C120.378 59.7664 120.347 59.7354 120.336 59.6928L119.836 58.0374C119.801 57.9172 119.626 57.9172 119.591 58.0374L119.091 59.6928C119.08 59.7354 119.049 59.7664 119.006 59.7781L117.35 60.2782C117.23 60.313 117.23 60.4875 117.35 60.5224L119.01 61.0225C119.052 61.0341 119.083 61.0651 119.095 61.1078L119.595 62.767C119.63 62.8872 119.805 62.8872 119.839 62.767L120.34 61.1078C120.347 61.0651 120.378 61.0341 120.421 61.0225Z" fill="#2A2E37"/>
<path d="M39.986 32.919L41.6453 32.4189C41.7655 32.384 41.7655 32.2095 41.6453 32.1746L39.986 31.6745C39.9433 31.6629 39.9123 31.6319 39.9007 31.5893L39.4005 29.9339C39.3656 29.8137 39.1912 29.8137 39.1563 29.9339L38.6561 31.5893C38.6445 31.6319 38.6135 31.6629 38.5708 31.6745L36.9153 32.1746C36.7951 32.2095 36.7951 32.384 36.9153 32.4189L38.5747 32.919C38.6174 32.9306 38.6484 32.9616 38.66 33.0043L39.1601 34.6635C39.195 34.7837 39.3695 34.7837 39.4044 34.6635L39.9045 33.0043C39.9123 32.9616 39.9433 32.9306 39.986 32.919Z" fill="#959EB0"/>
<path d="M15.2745 88.6416L16.9339 88.1415C17.0541 88.1066 17.0541 87.9322 16.9339 87.8973L15.2745 87.3972C15.2319 87.3856 15.2009 87.3546 15.1892 87.3119L14.6891 85.6565C14.6542 85.5364 14.4797 85.5364 14.4448 85.6565L13.9447 87.3119C13.9331 87.3546 13.9021 87.3856 13.8594 87.3972L12.2039 87.8973C12.0837 87.9322 12.0837 88.1066 12.2039 88.1415L13.8633 88.6416C13.9059 88.6533 13.937 88.6843 13.9486 88.7269L14.4487 90.3862C14.4836 90.5063 14.6581 90.5063 14.693 90.3862L15.1931 88.7269C15.2009 88.6843 15.2319 88.6533 15.2745 88.6416Z" fill="#2A2E37"/>
<defs>
<filter id="filter0_d" x="7.03516" y="0.818848" width="132.035" height="129.334" filterUnits="userSpaceOnUse" color-interpolation-filters="sRGB">
<feFlood flood-opacity="0" result="BackgroundImageFix"/>
<feColorMatrix in="SourceAlpha" type="matrix" values="0 0 0 0 0 0 0 0 0 0 0 0 0 0 0 0 0 0 127 0" result="hardAlpha"/>
<feOffset dy="11"/>
<feGaussianBlur stdDeviation="11"/>
<feColorMatrix type="matrix" values="0 0 0 0 0 0 0 0 0 0 0 0 0 0 0 0 0 0 0.27 0"/>
<feBlend mode="normal" in2="BackgroundImageFix" result="effect1_dropShadow"/>
<feBlend mode="normal" in="SourceGraphic" in2="effect1_dropShadow" result="shape"/>
</filter>
<linearGradient id="paint0_linear" x1="8.84672" y1="77.0677" x2="130.265" y2="50.1942" gradientUnits="userSpaceOnUse">
<stop stop-color="#B0BACC"/>
<stop offset="1" stop-color="#969EAE"/>
</linearGradient>
</defs>
</svg>
